<mxfile host="www.draw.io" modified="2019-12-17T04:54:44.594Z" agent="Mozilla/5.0 (Macintosh; Intel Mac OS X 10_13_6) AppleWebKit/537.36 (KHTML, like Gecko) Chrome/79.0.3945.79 Safari/537.36" etag="lOu2sR_lyVMfYunG7sr0" version="12.4.2" type="github" pages="1">
  <diagram id="dIdCKHCLPM0Rrodj-kXr" name="Page-1">
    <mxGraphModel dx="1379" dy="853" grid="1" gridSize="10" guides="1" tooltips="1" connect="1" arrows="1" fold="1" page="1" pageScale="1" pageWidth="827" pageHeight="1169" math="0" shadow="0">
      <root>
        <mxCell id="0"/>
        <mxCell id="1" parent="0"/>
        <mxCell id="fq5EuM6EA8eF8g034mVc-1" value="&lt;b&gt;Developer Tools&lt;/b&gt;" style="ellipse;shape=cloud;whiteSpace=wrap;html=1;direction=south;" parent="1" vertex="1">
          <mxGeometry x="40" y="85" width="80" height="280" as="geometry"/>
        </mxCell>
        <mxCell id="fq5EuM6EA8eF8g034mVc-4" value="&lt;b&gt;Resource&lt;br&gt;&lt;/b&gt;" style="ellipse;shape=cloud;whiteSpace=wrap;html=1;" parent="1" vertex="1">
          <mxGeometry x="350" y="110" width="120" height="80" as="geometry"/>
        </mxCell>
        <mxCell id="fq5EuM6EA8eF8g034mVc-5" value="&lt;b&gt;Resource&lt;br&gt;&lt;/b&gt;" style="ellipse;shape=cloud;whiteSpace=wrap;html=1;" parent="1" vertex="1">
          <mxGeometry x="350" y="180" width="120" height="80" as="geometry"/>
        </mxCell>
        <mxCell id="fq5EuM6EA8eF8g034mVc-6" value="&lt;b&gt;Resource&lt;br&gt;&lt;/b&gt;" style="ellipse;shape=cloud;whiteSpace=wrap;html=1;" parent="1" vertex="1">
          <mxGeometry x="350" y="250" width="120" height="80" as="geometry"/>
        </mxCell>
        <mxCell id="fq5EuM6EA8eF8g034mVc-19" value="" style="endArrow=classic;html=1;entryX=0;entryY=1;entryDx=0;entryDy=0;" parent="1" target="fq5EuM6EA8eF8g034mVc-24" edge="1">
          <mxGeometry width="50" height="50" relative="1" as="geometry">
            <mxPoint x="120" y="225" as="sourcePoint"/>
            <mxPoint x="340" y="220" as="targetPoint"/>
          </mxGeometry>
        </mxCell>
        <mxCell id="fq5EuM6EA8eF8g034mVc-21" value="" style="rounded=1;whiteSpace=wrap;html=1;fillColor=none;" parent="1" vertex="1">
          <mxGeometry x="340" y="100" width="140" height="250" as="geometry"/>
        </mxCell>
        <mxCell id="fq5EuM6EA8eF8g034mVc-24" value="" style="shape=image;html=1;verticalAlign=top;verticalLabelPosition=bottom;labelBackgroundColor=#ffffff;imageAspect=0;aspect=fixed;image=https://cdn1.iconfinder.com/data/icons/material-core/20/account-circle-128.png;fillColor=none;" parent="1" vertex="1">
          <mxGeometry x="320" y="52" width="58" height="58" as="geometry"/>
        </mxCell>
        <mxCell id="fq5EuM6EA8eF8g034mVc-25" value="&lt;b&gt;Resource&lt;/b&gt;" style="ellipse;shape=cloud;whiteSpace=wrap;html=1;fillColor=none;" parent="1" vertex="1">
          <mxGeometry x="350" y="5" width="120" height="80" as="geometry"/>
        </mxCell>
        <mxCell id="S-ffx5bEKKR6hBMYbXyW-1" value="" style="curved=1;endArrow=classic;html=1;exitX=0.875;exitY=0.5;exitDx=0;exitDy=0;exitPerimeter=0;entryX=1;entryY=0.5;entryDx=0;entryDy=0;" edge="1" parent="1" source="fq5EuM6EA8eF8g034mVc-25" target="fq5EuM6EA8eF8g034mVc-21">
          <mxGeometry width="50" height="50" relative="1" as="geometry">
            <mxPoint x="540" y="90" as="sourcePoint"/>
            <mxPoint x="600" y="120" as="targetPoint"/>
            <Array as="points">
              <mxPoint x="600" y="60"/>
              <mxPoint x="560" y="190"/>
            </Array>
          </mxGeometry>
        </mxCell>
      </root>
    </mxGraphModel>
  </diagram>
</mxfile>
